<svg width="32" height="32" viewBox="0 0 32 32" fill="none" xmlns="http://www.w3.org/2000/svg">
<path d="M30.29 25.06C31.2356 22.3043 31.2282 19.3109 30.2689 16.56C29.3096 13.8091 27.4541 11.4601 25 9.89C24.9674 9.49542 24.8764 9.10786 24.73 8.74L26 7.47C26.0937 7.37704 26.1681 7.26644 26.2189 7.14458C26.2697 7.02272 26.2958 6.89201 26.2958 6.76C26.2958 6.62799 26.2697 6.49728 26.2189 6.37542C26.1681 6.25356 26.0937 6.14296 26 6.05L25.87 5.92L27.4 4.39C27.4937 4.29704 27.5681 4.18644 27.6189 4.06458C27.6697 3.94272 27.6958 3.81201 27.6958 3.68C27.6958 3.54799 27.6697 3.41728 27.6189 3.29542C27.5681 3.17356 27.4937 3.06296 27.4 2.97L25.68 1.29C25.4987 1.11002 25.2554 1.00626 25 1C24.8684 0.999239 24.7379 1.02446 24.6161 1.07423C24.4943 1.12399 24.3834 1.19732 24.29 1.29L22.74 2.83L22.6 2.69C22.4137 2.50526 22.1623 2.4011 21.9 2.4C21.7684 2.39924 21.6379 2.42446 21.5161 2.47423C21.3943 2.52399 21.2834 2.59732 21.19 2.69L12.79 11.09C12.6127 11.276 12.5138 11.5231 12.5138 11.78C12.5138 12.0369 12.6127 12.284 12.79 12.47L11.49 13.77C11.3963 13.863 11.3219 13.9736 11.2711 14.0954C11.2203 14.2173 11.1942 14.348 11.1942 14.48C11.1942 14.612 11.2203 14.7427 11.2711 14.8646C11.3219 14.9864 11.3963 15.097 11.49 15.19L13.49 17.19C13.5834 17.2827 13.6943 17.356 13.8161 17.4058C13.9379 17.4555 14.0684 17.4808 14.2 17.48C14.4623 17.4789 14.7137 17.3747 14.9 17.19L16.2 15.89C16.386 16.0673 16.6331 16.1662 16.89 16.1662C17.1469 16.1662 17.394 16.0673 17.58 15.89L19.47 14C19.954 14.2051 20.4743 14.3106 21 14.31C21.5817 14.3037 22.155 14.1706 22.68 13.92C24.439 15.0912 25.6891 16.8852 26.1789 18.9408C26.6687 20.9965 26.3618 23.1614 25.32 25H11.16L10.47 23.5H16C16.2652 23.5 16.5196 23.3946 16.7071 23.2071C16.8946 23.0196 17 22.7652 17 22.5V19.5C17 19.2348 16.8946 18.9804 16.7071 18.7929C16.5196 18.6054 16.2652 18.5 16 18.5H2C1.73478 18.5 1.48043 18.6054 1.29289 18.7929C1.10536 18.9804 1 19.2348 1 19.5V22.5C1 22.7652 1.10536 23.0196 1.29289 23.2071C1.48043 23.3946 1.73478 23.5 2 23.5H3.84L4.54 25H2C1.73478 25 1.48043 25.1054 1.29289 25.2929C1.10536 25.4804 1 25.7348 1 26V30C1 30.2652 1.10536 30.5196 1.29289 30.7071C1.48043 30.8946 1.73478 31 2 31H30C30.2652 31 30.5196 30.8946 30.7071 30.7071C30.8946 30.5196 31 30.2652 31 30V26C30.9964 25.7883 30.9257 25.5833 30.7981 25.4144C30.6705 25.2454 30.4926 25.1214 30.29 25.06ZM19.86 11.91C19.7397 11.8182 19.626 11.718 19.52 11.61L19.46 11.53C19.3854 11.4391 19.3185 11.3421 19.26 11.24L19.21 11.14C19.1597 11.0375 19.1195 10.9303 19.09 10.82V10.72C19.0586 10.572 19.0418 10.4213 19.04 10.27C19.04 9.73957 19.2507 9.23086 19.6258 8.85579C20.0009 8.48071 20.5096 8.27 21.04 8.27C21.1913 8.27183 21.342 8.28857 21.49 8.32H21.6C21.7065 8.35133 21.8102 8.39147 21.91 8.44L22.02 8.5C22.1193 8.55403 22.2131 8.61767 22.3 8.69C22.331 8.7078 22.3582 8.7316 22.38 8.76C22.4926 8.85784 22.5933 8.9686 22.68 9.09C22.9072 9.44029 23.0191 9.85291 23 10.27C23 10.27 23 10.32 23 10.35C22.999 10.3667 22.999 10.3833 23 10.4C22.9829 10.6943 22.9009 10.9811 22.76 11.24C22.6983 11.3622 22.6173 11.4737 22.52 11.57C22.4228 11.6767 22.3157 11.7738 22.2 11.86C21.8656 12.0934 21.4678 12.219 21.06 12.22C20.6377 12.2423 20.2187 12.1341 19.86 11.91Z" fill="black"/>
<path d="M30.29 25.06C31.2356 22.3043 31.2282 19.3109 30.2689 16.56C29.3096 13.8091 27.4541 11.4601 25 9.89C24.9674 9.49542 24.8764 9.10786 24.73 8.74L26 7.47C26.0937 7.37704 26.1681 7.26644 26.2189 7.14458C26.2697 7.02272 26.2958 6.89201 26.2958 6.76C26.2958 6.62799 26.2697 6.49728 26.2189 6.37542C26.1681 6.25356 26.0937 6.14296 26 6.05L25.87 5.92L27.4 4.39C27.4937 4.29704 27.5681 4.18644 27.6189 4.06458C27.6697 3.94272 27.6958 3.81201 27.6958 3.68C27.6958 3.54799 27.6697 3.41728 27.6189 3.29542C27.5681 3.17356 27.4937 3.06296 27.4 2.97L25.68 1.29C25.4987 1.11002 25.2554 1.00626 25 1C24.8684 0.999239 24.7379 1.02446 24.6161 1.07423C24.4943 1.12399 24.3834 1.19732 24.29 1.29L22.74 2.83L22.6 2.69C22.4137 2.50526 22.1623 2.4011 21.9 2.4C21.7684 2.39924 21.6379 2.42446 21.5161 2.47423C21.3943 2.52399 21.2834 2.59732 21.19 2.69L12.79 11.09C12.6127 11.276 12.5138 11.5231 12.5138 11.78C12.5138 12.0369 12.6127 12.284 12.79 12.47L11.49 13.77C11.3963 13.863 11.3219 13.9736 11.2711 14.0954C11.2203 14.2173 11.1942 14.348 11.1942 14.48C11.1942 14.612 11.2203 14.7427 11.2711 14.8646C11.3219 14.9864 11.3963 15.097 11.49 15.19L13.49 17.19C13.5834 17.2827 13.6943 17.356 13.8161 17.4058C13.9379 17.4555 14.0684 17.4808 14.2 17.48C14.4623 17.4789 14.7137 17.3747 14.9 17.19L16.2 15.89C16.386 16.0673 16.6331 16.1662 16.89 16.1662C17.1469 16.1662 17.394 16.0673 17.58 15.89L19.47 14C19.954 14.2051 20.4743 14.3106 21 14.31C21.5817 14.3037 22.155 14.1706 22.68 13.92C24.439 15.0912 25.6891 16.8852 26.1789 18.9408C26.6687 20.9965 26.3618 23.1614 25.32 25H11.16L10.47 23.5H16C16.2652 23.5 16.5196 23.3946 16.7071 23.2071C16.8946 23.0196 17 22.7652 17 22.5V19.5C17 19.2348 16.8946 18.9804 16.7071 18.7929C16.5196 18.6054 16.2652 18.5 16 18.5H2C1.73478 18.5 1.48043 18.6054 1.29289 18.7929C1.10536 18.9804 1 19.2348 1 19.5V22.5C1 22.7652 1.10536 23.0196 1.29289 23.2071C1.48043 23.3946 1.73478 23.5 2 23.5H3.84L4.54 25H2C1.73478 25 1.48043 25.1054 1.29289 25.2929C1.10536 25.4804 1 25.7348 1 26V30C1 30.2652 1.10536 30.5196 1.29289 30.7071C1.48043 30.8946 1.73478 31 2 31H30C30.2652 31 30.5196 30.8946 30.7071 30.7071C30.8946 30.5196 31 30.2652 31 30V26C30.9964 25.7883 30.9257 25.5833 30.7981 25.4144C30.6705 25.2454 30.4926 25.1214 30.29 25.06ZM19.86 11.91C19.7397 11.8182 19.626 11.718 19.52 11.61L19.46 11.53C19.3854 11.4391 19.3185 11.3421 19.26 11.24L19.21 11.14C19.1597 11.0375 19.1195 10.9303 19.09 10.82V10.72C19.0586 10.572 19.0418 10.4213 19.04 10.27C19.04 9.73957 19.2507 9.23086 19.6258 8.85579C20.0009 8.48071 20.5096 8.27 21.04 8.27C21.1913 8.27183 21.342 8.28857 21.49 8.32H21.6C21.7065 8.35133 21.8102 8.39147 21.91 8.44L22.02 8.5C22.1193 8.55403 22.2131 8.61767 22.3 8.69C22.331 8.7078 22.3582 8.7316 22.38 8.76C22.4926 8.85784 22.5933 8.9686 22.68 9.09C22.9072 9.44029 23.0191 9.85291 23 10.27C23 10.27 23 10.32 23 10.35C22.999 10.3667 22.999 10.3833 23 10.4C22.9829 10.6943 22.9009 10.9811 22.76 11.24C22.6983 11.3622 22.6173 11.4737 22.52 11.57C22.4228 11.6767 22.3157 11.7738 22.2 11.86C21.8656 12.0934 21.4678 12.219 21.06 12.22C20.6377 12.2423 20.2187 12.1341 19.86 11.91Z" fill="url(#paint0_linear_608_3793)"/>
<defs>
<linearGradient id="paint0_linear_608_3793" x1="16" y1="31" x2="16" y2="0.999983" gradientUnits="userSpaceOnUse">
<stop stop-color="#A93AFF"/>
<stop offset="1" stop-color="#FF81FF"/>
</linearGradient>
</defs>
</svg>
