<svg width="26" height="26" viewBox="0 0 26 26" fill="none" xmlns="http://www.w3.org/2000/svg">
<circle cx="12.9999" cy="12.6923" r="12.6923" fill="#E2F3FF" fill-opacity="0.3"/>
<path d="M12.9996 6.63446C11.7377 6.63596 10.528 7.1379 9.6357 8.03017C8.74343 8.92245 8.24149 10.1322 8.23999 11.3941C8.23999 15.4666 12.5669 18.5428 12.7511 18.6717C12.824 18.7226 12.9107 18.7498 12.9996 18.7498C13.0885 18.7498 13.1752 18.7226 13.2481 18.6717C13.4323 18.5428 17.7592 15.4666 17.7592 11.3941C17.7577 10.1322 17.2558 8.92245 16.3635 8.03017C15.4712 7.1379 14.2615 6.63596 12.9996 6.63446ZM12.9999 9.66346C13.3422 9.66346 13.6769 9.76497 13.9615 9.95515C14.2461 10.1453 14.4679 10.4156 14.5989 10.7319C14.7299 11.0482 14.7642 11.3962 14.6974 11.7319C14.6307 12.0676 14.4658 12.376 14.2238 12.6181C13.9817 12.8601 13.6733 13.025 13.3376 13.0917C13.0018 13.1585 12.6538 13.1243 12.3376 12.9933C12.0213 12.8623 11.751 12.6404 11.5608 12.3558C11.3707 12.0712 11.2692 11.7365 11.2692 11.3942C11.2691 11.1669 11.3139 10.9419 11.4009 10.7319C11.4879 10.5219 11.6154 10.3311 11.7761 10.1704C11.9368 10.0097 12.1276 9.88217 12.3376 9.7952C12.5476 9.70822 12.7726 9.66346 12.9999 9.66346Z" fill="#3F8ABF"/>
</svg>
