<svg width="26" height="26" viewBox="0 0 26 26" fill="none" xmlns="http://www.w3.org/2000/svg">
<circle cx="12.9999" cy="12.6923" r="12.6923" fill="#E2F3FF" fill-opacity="0.3"/>
<path d="M18.0825 14.338L15.5492 13.2523C15.417 13.1954 15.2726 13.1724 15.1292 13.1856C14.9858 13.1988 14.8479 13.2476 14.7283 13.3277L13.3738 14.2306C12.546 13.828 11.8759 13.1609 11.4697 12.3349L11.4698 12.3348L12.3695 10.96C12.4478 10.8407 12.4953 10.7038 12.5078 10.5615C12.5202 10.4193 12.4973 10.2763 12.4409 10.1451L11.3542 7.60965C11.2802 7.43754 11.1525 7.29403 10.9901 7.20059C10.8278 7.10715 10.6395 7.06882 10.4535 7.09134C9.72275 7.1853 9.05116 7.54209 8.56424 8.09506C8.07732 8.64803 7.80836 9.35936 7.80762 10.0962C7.80762 14.3907 11.3015 17.8846 15.5961 17.8846C16.3329 17.8839 17.0442 17.6149 17.5972 17.128C18.1502 16.641 18.5069 15.9694 18.6009 15.2387C18.6233 15.0527 18.585 14.8644 18.4915 14.7021C18.3981 14.5397 18.2546 14.412 18.0825 14.338Z" fill="#3F8ABF"/>
</svg>
